<?xml version="1.0" encoding="utf-8"?>
<!-- Generator: Adobe Illustrator 25.0.0, SVG Export Plug-In . SVG Version: 6.00 Build 0)  -->
<svg version="1.1" id="Layer_1" xmlns="http://www.w3.org/2000/svg" xmlns:xlink="http://www.w3.org/1999/xlink" x="0px" y="0px"
	 viewBox="0 0 20 20" style="enable-background:new 0 0 20 20;" xml:space="preserve">
<style type="text/css">
	.st0{fill:#FF00FF;}
</style>
<path class="st0" d="M4.32,9.51c0.23,0.72,0.52,1.41,0.88,2.06h0c0.36,0.68,0.79,1.32,1.27,1.92c0.48,0.6,1.03,1.16,1.61,1.65h0
	c0.56,0.48,1.17,0.91,1.81,1.28c0.64-0.37,1.25-0.8,1.81-1.28c0.59-0.5,1.13-1.05,1.62-1.65c0.48-0.6,0.91-1.24,1.27-1.92
	c0.35-0.66,0.65-1.35,0.88-2.06c-0.3-0.01-0.59-0.04-0.88-0.07c-0.36,0.68-0.79,1.32-1.27,1.92c-0.49,0.6-1.03,1.16-1.62,1.65
	c-0.56,0.48-1.17,0.91-1.81,1.28c-0.64-0.37-1.25-0.8-1.81-1.28h0c-0.59-0.5-1.13-1.05-1.61-1.65c-0.48-0.6-0.91-1.24-1.27-1.92
	C4.91,9.47,4.62,9.49,4.32,9.51z"/>
<path class="st0" d="M19.43,17.76c0-0.86-0.06-1.7-0.17-2.52c-0.15-1.13-0.4-2.23-0.74-3.29c-0.35-1.11-0.81-2.18-1.36-3.19
	c-0.56-1.05-1.22-2.05-1.97-2.97c-0.75-0.93-1.59-1.79-2.5-2.55c-0.87-0.74-1.81-1.4-2.8-1.98C8.91,1.83,7.97,2.5,7.1,3.24
	C6.19,4.01,5.35,4.86,4.6,5.79C3.86,6.71,3.2,7.71,2.63,8.76c-0.55,1.01-1,2.08-1.36,3.19c-0.34,1.06-0.59,2.16-0.74,3.29
	c-0.11,0.82-0.17,1.67-0.17,2.52c0,0.26,0.01,0.52,0.02,0.78c0.05,0,0.1,0,0.15,0c0.15-1.13,0.4-2.23,0.74-3.29
	c0.35-1.11,0.81-2.18,1.36-3.19C3.2,11.01,3.86,10.02,4.6,9.1c0.75-0.93,1.59-1.79,2.5-2.55c0.87-0.74,1.81-1.4,2.8-1.98
	c0.99,0.57,1.93,1.23,2.8,1.98c0.91,0.77,1.75,1.62,2.5,2.55c0.75,0.92,1.41,1.91,1.97,2.97c0.55,1.01,1,2.08,1.36,3.19
	c0.34,1.06,0.59,2.16,0.74,3.29c0.05,0,0.1,0,0.15,0C19.42,18.28,19.43,18.02,19.43,17.76z"/>
</svg>
